<svg xmlns="http://www.w3.org/2000/svg" width="1600" height="1067" viewBox="0 0 1600 1067">
<defs>
  <filter id="shadow" x="-20%" y="-20%" width="140%" height="140%"><feDropShadow dx="0" dy="12" stdDeviation="18" flood-color="#263238" flood-opacity="0.12"/></filter>
  <filter id="shadow-sm" x="-20%" y="-20%" width="140%" height="140%"><feDropShadow dx="0" dy="6" stdDeviation="9" flood-color="#263238" flood-opacity="0.10"/></filter>
  <filter id="blur"><feGaussianBlur stdDeviation="6"/></filter>
  <linearGradient id="bg" x1="0" y1="0" x2="1" y2="1"><stop offset="0" stop-color="#F9F6EF"/><stop offset="1" stop-color="#ECE6DC"/></linearGradient>
  <linearGradient id="paper" x1="0" y1="0" x2="0" y2="1"><stop offset="0" stop-color="#FFFEFB"/><stop offset="1" stop-color="#F4EFE6"/></linearGradient>
  <linearGradient id="screen" x1="0" y1="0" x2="1" y2="1"><stop offset="0" stop-color="#3C464B"/><stop offset="1" stop-color="#1F272B"/></linearGradient>
  <pattern id="grid" width="36" height="36" patternUnits="userSpaceOnUse"><path d="M 36 0 L 0 0 0 36" fill="none" stroke="#8E988F" stroke-opacity="0.10" stroke-width="1"/></pattern>
  <pattern id="dots" width="18" height="18" patternUnits="userSpaceOnUse"><circle cx="2" cy="2" r="1.1" fill="#6E756F" opacity="0.10"/></pattern>
  <marker id="arrow" markerWidth="10" markerHeight="10" refX="8" refY="5" orient="auto" markerUnits="strokeWidth"><path d="M0,0 L10,5 L0,10 z" fill="#66706C"/></marker>
</defs>
<rect width="1600" height="1067" fill="url(#bg)"/><rect width="1600" height="1067" fill="url(#grid)"/><ellipse cx="192.0" cy="149.38000000000002" rx="320.0" ry="192.06" fill="#8FAF96" opacity="0.06"/><ellipse cx="1408.0" cy="874.9399999999999" rx="352.0" ry="234.74" fill="#C99B9B" opacity="0.06"/><text x="96" y="92" font-family="Inter" font-size="46" font-weight="700" fill="#2F3437" text-anchor="start" opacity="1" letter-spacing="0">Repository Structure</text><text x="96" y="132" font-family="Inter" font-size="20" font-weight="400" fill="#7B827F" text-anchor="start" opacity="1" letter-spacing="0">A 30-second map of src/ and the data-fetching boundaries.</text><line x1="96" y1="160" x2="1504" y2="160" stroke="#D8D2C8" stroke-width="2"/><rect x="84" y="210" width="760" height="700" rx="32" fill="#263238" stroke="none" stroke-width="1" opacity="1" filter="url(#shadow-sm)"/><circle cx="124" cy="250" r="7" fill="#C99B9B"/><circle cx="148" cy="250" r="7" fill="#D4B483"/><circle cx="172" cy="250" r="7" fill="#8FAF96"/><text x="205" y="258" font-family="JetBrains Mono" font-size="24" font-weight="700" fill="#F5F0E8" text-anchor="start" opacity="1" letter-spacing="0">src/</text><line x1="128" y1="296" x2="128" y2="780" stroke="#607077" stroke-width="2"/><line x1="128" y1="313" x2="162" y2="313" stroke="#607077" stroke-width="2"/><path d="M176 295 h18 l6 6 h26 v24 h-50 z" fill="#D9E8DD" opacity="0.22" stroke="#D9E8DD" stroke-width="2"/><text x="238" y="320" font-family="JetBrains Mono" font-size="19" font-weight="600" fill="#D9E8DD" text-anchor="start" opacity="1" letter-spacing="0">api/</text><text x="500" y="320" font-family="Inter" font-size="16" font-weight="400" fill="#AAB7B2" text-anchor="start" opacity="1" letter-spacing="0">HTTP clients</text><line x1="128" y1="371" x2="162" y2="371" stroke="#607077" stroke-width="2"/><path d="M176 353 h18 l6 6 h26 v24 h-50 z" fill="#D9E8DD" opacity="0.22" stroke="#D9E8DD" stroke-width="2"/><text x="238" y="378" font-family="JetBrains Mono" font-size="19" font-weight="600" fill="#D9E8DD" text-anchor="start" opacity="1" letter-spacing="0">app/</text><text x="500" y="378" font-family="Inter" font-size="16" font-weight="400" fill="#AAB7B2" text-anchor="start" opacity="1" letter-spacing="0">routes + themes</text><line x1="162" y1="429" x2="196" y2="429" stroke="#607077" stroke-width="2"/><line x1="162" y1="394" x2="162" y2="429" stroke="#607077" stroke-width="2"/><path d="M210 411 h18 l6 6 h26 v24 h-50 z" fill="#D9E0EA" opacity="0.22" stroke="#D9E0EA" stroke-width="2"/><text x="272" y="436" font-family="JetBrains Mono" font-size="19" font-weight="600" fill="#D9E0EA" text-anchor="start" opacity="1" letter-spacing="0">styles/themes/</text><text x="500" y="436" font-family="Inter" font-size="16" font-weight="400" fill="#AAB7B2" text-anchor="start" opacity="1" letter-spacing="0">theme presets</text><line x1="128" y1="487" x2="162" y2="487" stroke="#607077" stroke-width="2"/><path d="M176 469 h18 l6 6 h26 v24 h-50 z" fill="#D9E8DD" opacity="0.22" stroke="#D9E8DD" stroke-width="2"/><text x="238" y="494" font-family="JetBrains Mono" font-size="19" font-weight="600" fill="#D9E8DD" text-anchor="start" opacity="1" letter-spacing="0">components/</text><text x="500" y="494" font-family="Inter" font-size="16" font-weight="400" fill="#AAB7B2" text-anchor="start" opacity="1" letter-spacing="0">page sections + UI</text><line x1="128" y1="545" x2="162" y2="545" stroke="#607077" stroke-width="2"/><path d="M176 527 h18 l6 6 h26 v24 h-50 z" fill="#D9E8DD" opacity="0.22" stroke="#D9E8DD" stroke-width="2"/><text x="238" y="552" font-family="JetBrains Mono" font-size="19" font-weight="600" fill="#D9E8DD" text-anchor="start" opacity="1" letter-spacing="0">hooks/</text><text x="500" y="552" font-family="Inter" font-size="16" font-weight="400" fill="#AAB7B2" text-anchor="start" opacity="1" letter-spacing="0">client data hooks</text><line x1="128" y1="603" x2="162" y2="603" stroke="#607077" stroke-width="2"/><path d="M176 585 h18 l6 6 h26 v24 h-50 z" fill="#D9E0EA" opacity="0.22" stroke="#D9E0EA" stroke-width="2"/><text x="238" y="610" font-family="JetBrains Mono" font-size="19" font-weight="600" fill="#D9E0EA" text-anchor="start" opacity="1" letter-spacing="0">interface/</text><text x="500" y="610" font-family="Inter" font-size="16" font-weight="400" fill="#AAB7B2" text-anchor="start" opacity="1" letter-spacing="0">TypeScript types</text><line x1="128" y1="661" x2="162" y2="661" stroke="#607077" stroke-width="2"/><path d="M176 643 h18 l6 6 h26 v24 h-50 z" fill="#E8D7D7" opacity="0.22" stroke="#E8D7D7" stroke-width="2"/><text x="238" y="668" font-family="JetBrains Mono" font-size="19" font-weight="600" fill="#E8D7D7" text-anchor="start" opacity="1" letter-spacing="0">mock/</text><text x="500" y="668" font-family="Inter" font-size="16" font-weight="400" fill="#AAB7B2" text-anchor="start" opacity="1" letter-spacing="0">API fallback data</text><line x1="128" y1="719" x2="162" y2="719" stroke="#607077" stroke-width="2"/><path d="M176 701 h18 l6 6 h26 v24 h-50 z" fill="#E8D7D7" opacity="0.22" stroke="#E8D7D7" stroke-width="2"/><text x="238" y="726" font-family="JetBrains Mono" font-size="19" font-weight="600" fill="#E8D7D7" text-anchor="start" opacity="1" letter-spacing="0">data/</text><text x="500" y="726" font-family="Inter" font-size="16" font-weight="400" fill="#AAB7B2" text-anchor="start" opacity="1" letter-spacing="0">static content</text><line x1="128" y1="777" x2="162" y2="777" stroke="#607077" stroke-width="2"/><path d="M176 759 h18 l6 6 h26 v24 h-50 z" fill="#D9E0EA" opacity="0.22" stroke="#D9E0EA" stroke-width="2"/><text x="238" y="784" font-family="JetBrains Mono" font-size="19" font-weight="600" fill="#D9E0EA" text-anchor="start" opacity="1" letter-spacing="0">icon/</text><text x="500" y="784" font-family="Inter" font-size="16" font-weight="400" fill="#AAB7B2" text-anchor="start" opacity="1" letter-spacing="0">icon maps</text><line x1="122" y1="850" x2="805" y2="850" stroke="#506066" stroke-width="2"/><text x="122" y="884" font-family="JetBrains Mono" font-size="15" font-weight="500" fill="#8FAF96" text-anchor="start" opacity="1" letter-spacing="0">Routes · UI · Data · Types</text><rect x="900" y="225" width="610" height="175" rx="28" fill="#FFFEFB" stroke="#E2DDD5" stroke-width="1" opacity="1" filter="url(#shadow-sm)"/><rect x="900" y="225" width="10" height="175" rx="5" fill="#A8C5D4"/><text x="938" y="275" font-family="Inter" font-size="26" font-weight="700" fill="#2F3437" text-anchor="start" opacity="1" letter-spacing="0">Server Components</text><text x="938" y="314" font-family="JetBrains Mono" font-size="17" font-weight="600" fill="#4A5568" text-anchor="start" opacity="1" letter-spacing="0">SERVER_API_BASE_URL</text><text x="938" y="345" font-family="Inter" font-size="16" font-weight="400" fill="#7B827F" text-anchor="start" opacity="1" letter-spacing="0">fallback: src/data · src/mock</text><text x="938" y="374" font-family="Inter" font-size="16" font-weight="400" fill="#7B827F" text-anchor="start" opacity="1" letter-spacing="0">first paint · SEO</text><rect x="900" y="445" width="610" height="175" rx="28" fill="#FFFEFB" stroke="#E2DDD5" stroke-width="1" opacity="1" filter="url(#shadow-sm)"/><rect x="900" y="445" width="10" height="175" rx="5" fill="#8FAF96"/><text x="938" y="495" font-family="Inter" font-size="26" font-weight="700" fill="#2F3437" text-anchor="start" opacity="1" letter-spacing="0">Client Components</text><text x="938" y="534" font-family="Inter" font-size="17" font-weight="600" fill="#4A5568" text-anchor="start" opacity="1" letter-spacing="0">hooks · browser /api proxy</text><text x="938" y="565" font-family="Inter" font-size="16" font-weight="400" fill="#7B827F" text-anchor="start" opacity="1" letter-spacing="0">interactive surfaces</text><text x="938" y="594" font-family="Inter" font-size="16" font-weight="400" fill="#7B827F" text-anchor="start" opacity="1" letter-spacing="0">local state + mutations</text><rect x="900" y="665" width="610" height="175" rx="28" fill="#FFFEFB" stroke="#E2DDD5" stroke-width="1" opacity="1" filter="url(#shadow-sm)"/><rect x="900" y="665" width="10" height="175" rx="5" fill="#C99B9B"/><text x="938" y="715" font-family="Inter" font-size="26" font-weight="700" fill="#2F3437" text-anchor="start" opacity="1" letter-spacing="0">Themes</text><text x="938" y="754" font-family="Inter" font-size="17" font-weight="600" fill="#4A5568" text-anchor="start" opacity="1" letter-spacing="0">life · swiss · minimalist</text><text x="938" y="785" font-family="Inter" font-size="16" font-weight="400" fill="#7B827F" text-anchor="start" opacity="1" letter-spacing="0">glass · brutalist</text><text x="938" y="814" font-family="Inter" font-size="16" font-weight="400" fill="#7B827F" text-anchor="start" opacity="1" letter-spacing="0">&lt;html&gt; class + StyleConsole</text><rect x="84" y="948" width="1426" height="74" rx="22" fill="#EFEAE0" stroke="none" stroke-width="1" opacity="1"/><text x="114" y="993" font-family="JetBrains Mono" font-size="17" font-weight="600" fill="#4F6C57" text-anchor="start" opacity="1" letter-spacing="0">New endpoints -&gt; src/api/*</text><text x="720" y="993" font-family="JetBrains Mono" font-size="17" font-weight="600" fill="#675B80" text-anchor="start" opacity="1" letter-spacing="0">New pages -&gt; src/app/{route}/page.tsx</text></svg>