<svg xmlns="http://www.w3.org/2000/svg" width="1600" height="900" viewBox="0 0 1600 900">
<defs>
  <filter id="shadow" x="-20%" y="-20%" width="140%" height="140%"><feDropShadow dx="0" dy="12" stdDeviation="18" flood-color="#263238" flood-opacity="0.12"/></filter>
  <filter id="shadow-sm" x="-20%" y="-20%" width="140%" height="140%"><feDropShadow dx="0" dy="6" stdDeviation="9" flood-color="#263238" flood-opacity="0.10"/></filter>
  <filter id="blur"><feGaussianBlur stdDeviation="6"/></filter>
  <linearGradient id="bg" x1="0" y1="0" x2="1" y2="1"><stop offset="0" stop-color="#F9F6EF"/><stop offset="1" stop-color="#ECE6DC"/></linearGradient>
  <linearGradient id="paper" x1="0" y1="0" x2="0" y2="1"><stop offset="0" stop-color="#FFFEFB"/><stop offset="1" stop-color="#F4EFE6"/></linearGradient>
  <linearGradient id="screen" x1="0" y1="0" x2="1" y2="1"><stop offset="0" stop-color="#3C464B"/><stop offset="1" stop-color="#1F272B"/></linearGradient>
  <pattern id="grid" width="36" height="36" patternUnits="userSpaceOnUse"><path d="M 36 0 L 0 0 0 36" fill="none" stroke="#8E988F" stroke-opacity="0.10" stroke-width="1"/></pattern>
  <pattern id="dots" width="18" height="18" patternUnits="userSpaceOnUse"><circle cx="2" cy="2" r="1.1" fill="#6E756F" opacity="0.10"/></pattern>
  <marker id="arrow" markerWidth="10" markerHeight="10" refX="8" refY="5" orient="auto" markerUnits="strokeWidth"><path d="M0,0 L10,5 L0,10 z" fill="#66706C"/></marker>
</defs>
<rect width="1600" height="900" fill="url(#bg)"/><rect width="1600" height="900" fill="url(#grid)"/><ellipse cx="192.0" cy="126.00000000000001" rx="320.0" ry="162.0" fill="#8FAF96" opacity="0.06"/><ellipse cx="1408.0" cy="738.0" rx="352.0" ry="198.0" fill="#C99B9B" opacity="0.06"/><text x="96" y="92" font-family="Inter" font-size="46" font-weight="700" fill="#2F3437" text-anchor="start" opacity="1" letter-spacing="0">Visitor Journey</text><text x="96" y="132" font-family="Inter" font-size="20" font-weight="400" fill="#7B827F" text-anchor="start" opacity="1" letter-spacing="0">From first paint to exploration and engagement.</text><line x1="96" y1="160" x2="1504" y2="160" stroke="#D8D2C8" stroke-width="2"/><line x1="220" y1="338" x2="1380" y2="338" stroke="#AAB1AE" stroke-width="4" stroke-dasharray="10 12"/><path d="M345 425 H375" stroke="#66706C" stroke-width="3" marker-end="url(#arrow)"/><circle cx="220" cy="338" r="32" fill="#8FAF96"/><text x="220" y="348" font-family="Inter" font-size="22" font-weight="800" fill="#FFFFFF" text-anchor="middle" opacity="1" letter-spacing="0">1</text><rect x="95" y="390" width="250" height="245" rx="28" fill="#FFFEFB" stroke="#E2DDD5" stroke-width="1" opacity="1" filter="url(#shadow-sm)"/><rect x="117" y="415" width="72" height="10" rx="5" fill="#8FAF96" opacity="0.75"/><text x="117" y="474" font-family="Inter" font-size="25" font-weight="700" fill="#2F3437" text-anchor="start" opacity="1" letter-spacing="0">Landing</text><text x="117" y="522" font-family="Inter" font-size="17" font-weight="600" fill="#4A5568" text-anchor="start" opacity="1" letter-spacing="0">RSC prefetch config</text><text x="117" y="553" font-family="Inter" font-size="17" font-weight="400" fill="#7B827F" text-anchor="start" opacity="1" letter-spacing="0">+ latest posts</text><rect x="270" y="412" width="50" height="42" rx="7" fill="#8FAF96" opacity="0.18" transform="rotate(-5 295 433)"/><path d="M635 425 H665" stroke="#66706C" stroke-width="3" marker-end="url(#arrow)"/><circle cx="510" cy="338" r="32" fill="#A8C5D4"/><text x="510" y="348" font-family="Inter" font-size="22" font-weight="800" fill="#FFFFFF" text-anchor="middle" opacity="1" letter-spacing="0">2</text><rect x="385" y="390" width="250" height="245" rx="28" fill="#FFFEFB" stroke="#E2DDD5" stroke-width="1" opacity="1" filter="url(#shadow-sm)"/><rect x="407" y="415" width="72" height="10" rx="5" fill="#A8C5D4" opacity="0.75"/><text x="407" y="474" font-family="Inter" font-size="25" font-weight="700" fill="#2F3437" text-anchor="start" opacity="1" letter-spacing="0">Browse Writing</text><text x="407" y="522" font-family="Inter" font-size="17" font-weight="600" fill="#4A5568" text-anchor="start" opacity="1" letter-spacing="0">/writing list</text><text x="407" y="553" font-family="Inter" font-size="17" font-weight="400" fill="#7B827F" text-anchor="start" opacity="1" letter-spacing="0">hooks + fallback</text><rect x="560" y="412" width="50" height="42" rx="7" fill="#A8C5D4" opacity="0.18" transform="rotate(-3 585 433)"/><path d="M925 425 H955" stroke="#66706C" stroke-width="3" marker-end="url(#arrow)"/><circle cx="800" cy="338" r="32" fill="#9B8FB8"/><text x="800" y="348" font-family="Inter" font-size="22" font-weight="800" fill="#FFFFFF" text-anchor="middle" opacity="1" letter-spacing="0">3</text><rect x="675" y="390" width="250" height="245" rx="28" fill="#FFFEFB" stroke="#E2DDD5" stroke-width="1" opacity="1" filter="url(#shadow-sm)"/><rect x="697" y="415" width="72" height="10" rx="5" fill="#9B8FB8" opacity="0.75"/><text x="697" y="474" font-family="Inter" font-size="25" font-weight="700" fill="#2F3437" text-anchor="start" opacity="1" letter-spacing="0">Read Article</text><text x="697" y="522" font-family="Inter" font-size="17" font-weight="600" fill="#4A5568" text-anchor="start" opacity="1" letter-spacing="0">[slug] SSR</text><text x="697" y="553" font-family="Inter" font-size="17" font-weight="400" fill="#7B827F" text-anchor="start" opacity="1" letter-spacing="0">Markdown</text><rect x="850" y="412" width="50" height="42" rx="7" fill="#9B8FB8" opacity="0.18" transform="rotate(-1 875 433)"/><path d="M1215 425 H1245" stroke="#66706C" stroke-width="3" marker-end="url(#arrow)"/><circle cx="1090" cy="338" r="32" fill="#D4B483"/><text x="1090" y="348" font-family="Inter" font-size="22" font-weight="800" fill="#FFFFFF" text-anchor="middle" opacity="1" letter-spacing="0">4</text><rect x="965" y="390" width="250" height="245" rx="28" fill="#FFFEFB" stroke="#E2DDD5" stroke-width="1" opacity="1" filter="url(#shadow-sm)"/><rect x="987" y="415" width="72" height="10" rx="5" fill="#D4B483" opacity="0.75"/><text x="987" y="474" font-family="Inter" font-size="25" font-weight="700" fill="#2F3437" text-anchor="start" opacity="1" letter-spacing="0">Explore Life</text><text x="987" y="522" font-family="Inter" font-size="17" font-weight="600" fill="#4A5568" text-anchor="start" opacity="1" letter-spacing="0">gallery · footprints</text><text x="987" y="553" font-family="Inter" font-size="17" font-weight="400" fill="#7B827F" text-anchor="start" opacity="1" letter-spacing="0">love · about</text><rect x="1140" y="412" width="50" height="42" rx="7" fill="#D4B483" opacity="0.18" transform="rotate(1 1165 433)"/><circle cx="1380" cy="338" r="32" fill="#C99B9B"/><text x="1380" y="348" font-family="Inter" font-size="22" font-weight="800" fill="#FFFFFF" text-anchor="middle" opacity="1" letter-spacing="0">5</text><rect x="1255" y="390" width="250" height="245" rx="28" fill="#FFFEFB" stroke="#E2DDD5" stroke-width="1" opacity="1" filter="url(#shadow-sm)"/><rect x="1277" y="415" width="72" height="10" rx="5" fill="#C99B9B" opacity="0.75"/><text x="1277" y="474" font-family="Inter" font-size="25" font-weight="700" fill="#2F3437" text-anchor="start" opacity="1" letter-spacing="0">Engage</text><text x="1277" y="522" font-family="Inter" font-size="17" font-weight="600" fill="#4A5568" text-anchor="start" opacity="1" letter-spacing="0">theme switch · pond</text><text x="1277" y="553" font-family="Inter" font-size="17" font-weight="400" fill="#7B827F" text-anchor="start" opacity="1" letter-spacing="0">/api rewrite</text><rect x="1430" y="412" width="50" height="42" rx="7" fill="#C99B9B" opacity="0.18" transform="rotate(3 1455 433)"/><rect x="95" y="720" width="1410" height="95" rx="24" fill="#F1ECE3" stroke="none" stroke-width="1" opacity="1"/><text x="125" y="758" font-family="Inter" font-size="18" font-weight="700" fill="#865D66" text-anchor="start" opacity="1" letter-spacing="0">StyleConsole + CSS variables</text><text x="125" y="792" font-family="Inter" font-size="18" font-weight="400" fill="#4A5568" text-anchor="start" opacity="1" letter-spacing="0">Style state is stored in localStorage. Reads prefer RSC; interactive mutations go through /api rewrites.</text></svg>